<svg width="20" height="20" viewBox="0 0 20 20" fill="none" xmlns="http://www.w3.org/2000/svg">
<g clip-path="url(#clip0)">
<path d="M8.47824 0H0.652187C0.291992 0 0 0.291992 0 0.652187V8.47828C0 8.83844 0.291992 9.13047 0.652187 9.13047H8.47828C8.83844 9.13047 9.13047 8.83848 9.13047 8.47828V0.652187C9.13043 0.291992 8.83844 0 8.47824 0ZM7.82609 7.82609H1.30434V1.30434H7.82609V7.82609Z" fill="black"/>
<path d="M19.3478 0H11.5218C11.1616 0 10.8696 0.291992 10.8696 0.652187V8.47828C10.8696 8.83844 11.1616 9.13047 11.5218 9.13047H19.3478C19.708 9.13047 20 8.83848 20 8.47828V0.652187C20 0.291992 19.708 0 19.3478 0ZM18.6957 7.82609H12.1739V1.30434H18.6957V7.82609Z" fill="black"/>
<path d="M8.47824 10.8696H0.652187C0.291992 10.8696 0 11.1616 0 11.5218V19.3479C0 19.7081 0.291992 20.0001 0.652187 20.0001H8.47828C8.83844 20.0001 9.13047 19.7081 9.13047 19.3479V11.5218C9.13043 11.1616 8.83844 10.8696 8.47824 10.8696ZM7.82609 18.6957H1.30434V12.174H7.82609V18.6957Z" fill="black"/>
<path d="M19.3478 10.8696H11.5218C11.1616 10.8696 10.8696 11.1616 10.8696 11.5218V19.3479C10.8696 19.7081 11.1616 20.0001 11.5218 20.0001H19.3478C19.708 20.0001 20 19.7081 20 19.3479V11.5218C20 11.1616 19.708 10.8696 19.3478 10.8696ZM18.6957 18.6957H12.1739V12.174H18.6957V18.6957Z" fill="black"/>
</g>
<defs>
<clipPath id="clip0">
<rect width="20" height="20" fill="white"/>
</clipPath>
</defs>
</svg>
