<svg width="22" height="20" viewBox="0 0 22 20" fill="none" xmlns="http://www.w3.org/2000/svg">
<path fill-rule="evenodd" clip-rule="evenodd" d="M17.2083 0H22V2H18.7816L16.0128 14.6776H16V15H3V14.7519L0.80678 5.09095L0.469238 4H16.3448L16.9151 1.38852L17.2083 0ZM3.01314 6H15.908L14.3792 13H4.60222L3.01314 6Z" fill="white"/>
<path d="M13 20C11.8954 20 11 19.1046 11 18C11 16.8954 11.8954 16 13 16C14.1046 16 15 16.8954 15 18C15 19.1046 14.1046 20 13 20Z" fill="white"/>
<path d="M4 18C4 19.1046 4.89543 20 6 20C7.10457 20 8 19.1046 8 18C8 16.8954 7.10457 16 6 16C4.89543 16 4 16.8954 4 18Z" fill="white"/>
</svg>
