<svg width="16" height="16" viewBox="0 0 16 16" fill="none" xmlns="http://www.w3.org/2000/svg">
<path d="M15.4642 15.2916L15.4643 15.2917C15.512 15.3394 15.512 15.4166 15.4643 15.4642C15.4403 15.4882 15.4099 15.5 15.3779 15.5C15.3459 15.5 15.3155 15.4882 15.2917 15.4643L15.2916 15.4642L11.3868 11.5594L11.0642 11.2369L10.7135 11.5286C9.63244 12.4275 8.24567 12.9683 6.73421 12.9683C3.29706 12.9683 0.5 10.1713 0.5 6.73438C0.5 3.29716 3.2971 0.5 6.73421 0.5C10.1712 0.5 12.9683 3.29715 12.9683 6.73438C12.9683 8.2459 12.4276 9.6326 11.5285 10.7137L11.2369 11.0644L11.5594 11.3869L15.4642 15.2916ZM6.73421 0.744142C3.4308 0.744142 0.744141 3.43092 0.744141 6.73438C0.744141 10.0376 3.43085 12.7241 6.73421 12.7241C10.0375 12.7241 12.7241 10.0376 12.7241 6.73438C12.7241 3.43093 10.0375 0.744142 6.73421 0.744142Z" fill="#9B9393" stroke="black"/>
</svg>
